<svg xmlns="http://www.w3.org/2000/svg" xmlns:xlink="http://www.w3.org/1999/xlink" width="1000" zoomAndPan="magnify" viewBox="0 0 750 374.999991" height="500" preserveAspectRatio="xMidYMid meet" version="1.0"><defs><g/><clipPath id="b451a14a7b"><path d="M 32 28 L 679.480469 28 L 679.480469 185.558594 L 32 185.558594 Z M 32 28 " clip-rule="nonzero"/></clipPath><clipPath id="dca9e64218"><rect x="0" width="648" y="0" height="158"/></clipPath><clipPath id="03f8f4ca56"><path d="M 0.519531 162 L 406 162 L 406 185.558594 L 0.519531 185.558594 Z M 0.519531 162 " clip-rule="nonzero"/></clipPath><clipPath id="aa77711a6d"><path d="M 0.519531 0.519531 L 87 0.519531 L 87 185.558594 L 0.519531 185.558594 Z M 0.519531 0.519531 " clip-rule="nonzero"/></clipPath><clipPath id="d0b05624ec"><path d="M 414 75 L 508 75 L 508 152.988281 L 414 152.988281 Z M 414 75 " clip-rule="nonzero"/></clipPath><clipPath id="596e88ef3d"><path d="M 449 108 L 478 108 L 478 141 L 449 141 Z M 449 108 " clip-rule="nonzero"/></clipPath><clipPath id="a474a75cde"><path d="M 452.425781 107.128906 L 479.945312 109.996094 L 476.402344 143.992188 L 448.882812 141.125 Z M 452.425781 107.128906 " clip-rule="nonzero"/></clipPath><clipPath id="9eb8de3423"><path d="M 452.425781 107.128906 L 479.945312 109.996094 L 476.402344 143.992188 L 448.882812 141.125 Z M 452.425781 107.128906 " clip-rule="nonzero"/></clipPath><clipPath id="08c1af9551"><path d="M 452.425781 107.128906 L 479.945312 109.996094 L 476.402344 143.992188 L 448.882812 141.125 Z M 452.425781 107.128906 " clip-rule="nonzero"/></clipPath><clipPath id="2ab6ddf087"><path d="M 43.316406 167.570312 L 56.191406 167.570312 L 56.191406 180.445312 L 43.316406 180.445312 Z M 43.316406 167.570312 " clip-rule="nonzero"/></clipPath><clipPath id="b920e013ce"><path d="M 49.753906 167.570312 C 46.199219 167.570312 43.316406 170.449219 43.316406 174.007812 C 43.316406 177.5625 46.199219 180.445312 49.753906 180.445312 C 53.308594 180.445312 56.191406 177.5625 56.191406 174.007812 C 56.191406 170.449219 53.308594 167.570312 49.753906 167.570312 Z M 49.753906 167.570312 " clip-rule="nonzero"/></clipPath><clipPath id="2aa7bb2305"><path d="M 0.316406 0.570312 L 13.191406 0.570312 L 13.191406 13.445312 L 0.316406 13.445312 Z M 0.316406 0.570312 " clip-rule="nonzero"/></clipPath><clipPath id="64972c6269"><path d="M 6.753906 0.570312 C 3.199219 0.570312 0.316406 3.449219 0.316406 7.007812 C 0.316406 10.5625 3.199219 13.445312 6.753906 13.445312 C 10.308594 13.445312 13.191406 10.5625 13.191406 7.007812 C 13.191406 3.449219 10.308594 0.570312 6.753906 0.570312 Z M 6.753906 0.570312 " clip-rule="nonzero"/></clipPath><clipPath id="e60d5606a7"><rect x="0" width="14" y="0" height="14"/></clipPath><clipPath id="45a23747df"><path d="M 25.820312 167.570312 L 38.695312 167.570312 L 38.695312 180.445312 L 25.820312 180.445312 Z M 25.820312 167.570312 " clip-rule="nonzero"/></clipPath><clipPath id="9d89979be5"><path d="M 32.257812 167.570312 C 28.703125 167.570312 25.820312 170.449219 25.820312 174.007812 C 25.820312 177.5625 28.703125 180.445312 32.257812 180.445312 C 35.8125 180.445312 38.695312 177.5625 38.695312 174.007812 C 38.695312 170.449219 35.8125 167.570312 32.257812 167.570312 Z M 32.257812 167.570312 " clip-rule="nonzero"/></clipPath><clipPath id="eef32e81a1"><path d="M 0.820312 0.570312 L 13.695312 0.570312 L 13.695312 13.445312 L 0.820312 13.445312 Z M 0.820312 0.570312 " clip-rule="nonzero"/></clipPath><clipPath id="ed8d29021c"><path d="M 7.257812 0.570312 C 3.703125 0.570312 0.820312 3.449219 0.820312 7.007812 C 0.820312 10.5625 3.703125 13.445312 7.257812 13.445312 C 10.8125 13.445312 13.695312 10.5625 13.695312 7.007812 C 13.695312 3.449219 10.8125 0.570312 7.257812 0.570312 Z M 7.257812 0.570312 " clip-rule="nonzero"/></clipPath><clipPath id="1ac61308eb"><rect x="0" width="14" y="0" height="14"/></clipPath><clipPath id="52d06b08ab"><path d="M 8.0625 167.570312 L 20.9375 167.570312 L 20.9375 180.445312 L 8.0625 180.445312 Z M 8.0625 167.570312 " clip-rule="nonzero"/></clipPath><clipPath id="236bb33171"><path d="M 14.5 167.570312 C 10.945312 167.570312 8.0625 170.449219 8.0625 174.007812 C 8.0625 177.5625 10.945312 180.445312 14.5 180.445312 C 18.054688 180.445312 20.9375 177.5625 20.9375 174.007812 C 20.9375 170.449219 18.054688 167.570312 14.5 167.570312 Z M 14.5 167.570312 " clip-rule="nonzero"/></clipPath><clipPath id="e81b83704b"><path d="M 0.0625 0.570312 L 12.9375 0.570312 L 12.9375 13.445312 L 0.0625 13.445312 Z M 0.0625 0.570312 " clip-rule="nonzero"/></clipPath><clipPath id="f4631e8071"><path d="M 6.5 0.570312 C 2.945312 0.570312 0.0625 3.449219 0.0625 7.007812 C 0.0625 10.5625 2.945312 13.445312 6.5 13.445312 C 10.054688 13.445312 12.9375 10.5625 12.9375 7.007812 C 12.9375 3.449219 10.054688 0.570312 6.5 0.570312 Z M 6.5 0.570312 " clip-rule="nonzero"/></clipPath><clipPath id="7d700ae823"><rect x="0" width="13" y="0" height="14"/></clipPath><clipPath id="ff72ac8529"><rect x="0" width="680" y="0" height="186"/></clipPath></defs><g transform="matrix(1, 0, 0, 1, 29, 83)"><g clip-path="url(#ff72ac8529)"><g clip-path="url(#b451a14a7b)"><g transform="matrix(1, 0, 0, 1, 32, 28)"><g clip-path="url(#dca9e64218)"><g fill="#ffffff" fill-opacity="1"><g transform="translate(0.258082, 124.468185)"><g><path d="M 89.8125 -45.3125 C 89.8125 -43.03125 89.335938 -40.828125 88.390625 -38.703125 C 87.441406 -36.585938 86.164062 -34.847656 84.5625 -33.484375 C 82.957031 -32.128906 81.148438 -31.453125 79.140625 -31.453125 L 28.203125 -31.453125 C 29.234375 -28.796875 30.820312 -26.421875 32.96875 -24.328125 C 35.113281 -22.234375 37.679688 -20.585938 40.671875 -19.390625 C 43.660156 -18.203125 46.894531 -17.609375 50.375 -17.609375 C 51.945312 -17.609375 53.710938 -17.878906 55.671875 -18.421875 C 57.628906 -18.960938 59.613281 -19.707031 61.625 -20.65625 C 63.632812 -21.613281 65.453125 -22.6875 67.078125 -23.875 C 67.671875 -24.363281 68.363281 -24.539062 69.15625 -24.40625 C 69.945312 -24.269531 70.585938 -23.90625 71.078125 -23.3125 L 79.390625 -12.390625 C 79.816406 -11.734375 80.003906 -11.023438 79.953125 -10.265625 C 79.898438 -9.503906 79.578125 -8.851562 78.984375 -8.3125 C 76.640625 -6.351562 73.78125 -4.585938 70.40625 -3.015625 C 67.039062 -1.441406 63.550781 -0.207031 59.9375 0.6875 C 56.332031 1.582031 52.953125 2.03125 49.796875 2.03125 C 43.609375 2.03125 37.847656 0.921875 32.515625 -1.296875 C 27.191406 -3.523438 22.53125 -6.609375 18.53125 -10.546875 C 14.539062 -14.492188 11.414062 -19.085938 9.15625 -24.328125 C 6.90625 -29.566406 5.78125 -35.203125 5.78125 -41.234375 C 5.78125 -47.328125 6.878906 -52.992188 9.078125 -58.234375 C 11.285156 -63.472656 14.34375 -68.078125 18.25 -72.046875 C 22.164062 -76.015625 26.71875 -79.113281 31.90625 -81.34375 C 37.09375 -83.570312 42.703125 -84.6875 48.734375 -84.6875 C 54.492188 -84.6875 59.859375 -83.679688 64.828125 -81.671875 C 69.804688 -79.660156 74.171875 -76.859375 77.921875 -73.265625 C 81.671875 -69.679688 84.585938 -65.507812 86.671875 -60.75 C 88.765625 -56 89.8125 -50.851562 89.8125 -45.3125 Z M 48.25 -65.28125 C 45.039062 -65.28125 42.0625 -64.640625 39.3125 -63.359375 C 36.570312 -62.085938 34.222656 -60.320312 32.265625 -58.0625 C 30.316406 -55.8125 28.878906 -53.21875 27.953125 -50.28125 L 69.203125 -50.28125 C 68.378906 -53.21875 66.945312 -55.8125 64.90625 -58.0625 C 62.875 -60.320312 60.429688 -62.085938 57.578125 -63.359375 C 54.722656 -64.640625 51.613281 -65.28125 48.25 -65.28125 Z M 48.25 -65.28125 "/></g></g></g><g fill="#ffffff" fill-opacity="1"><g transform="translate(95.783036, 124.468185)"><g><path d="M 89.328125 -82.8125 C 90.085938 -82.8125 90.710938 -82.566406 91.203125 -82.078125 C 91.691406 -81.585938 91.9375 -80.9375 91.9375 -80.125 L 91.9375 -2.53125 C 91.9375 -1.769531 91.691406 -1.144531 91.203125 -0.65625 C 90.710938 -0.164062 90.085938 0.078125 89.328125 0.078125 L 80.28125 0.078125 C 78.976562 0.078125 78.054688 -0.519531 77.515625 -1.71875 L 74.171875 -12.875 C 70.859375 -8.257812 66.738281 -4.644531 61.8125 -2.03125 C 56.894531 0.570312 51.453125 1.875 45.484375 1.875 C 39.828125 1.875 34.59375 0.789062 29.78125 -1.375 C 24.976562 -3.550781 20.78125 -6.582031 17.1875 -10.46875 C 13.601562 -14.351562 10.804688 -18.914062 8.796875 -24.15625 C 6.785156 -29.40625 5.78125 -35.097656 5.78125 -41.234375 C 5.78125 -47.546875 6.769531 -53.347656 8.75 -58.640625 C 10.738281 -63.941406 13.523438 -68.546875 17.109375 -72.453125 C 20.703125 -76.367188 24.898438 -79.398438 29.703125 -81.546875 C 34.515625 -83.691406 39.742188 -84.765625 45.390625 -84.765625 C 51.367188 -84.765625 56.832031 -83.457031 61.78125 -80.84375 C 66.726562 -78.238281 70.859375 -74.570312 74.171875 -69.84375 L 77.515625 -81.015625 C 78.054688 -82.210938 78.976562 -82.8125 80.28125 -82.8125 Z M 49.3125 -18.421875 C 52.457031 -18.421875 55.414062 -19.003906 58.1875 -20.171875 C 60.957031 -21.335938 63.398438 -22.96875 65.515625 -25.0625 C 67.640625 -27.15625 69.300781 -29.585938 70.5 -32.359375 C 71.695312 -35.128906 72.296875 -38.117188 72.296875 -41.328125 C 72.296875 -44.585938 71.679688 -47.613281 70.453125 -50.40625 C 69.234375 -53.207031 67.5625 -55.65625 65.4375 -57.75 C 63.320312 -59.84375 60.878906 -61.472656 58.109375 -62.640625 C 55.335938 -63.804688 52.378906 -64.390625 49.234375 -64.390625 C 46.128906 -64.390625 43.21875 -63.804688 40.5 -62.640625 C 37.789062 -61.472656 35.398438 -59.84375 33.328125 -57.75 C 31.265625 -55.65625 29.632812 -53.207031 28.4375 -50.40625 C 27.25 -47.613281 26.65625 -44.585938 26.65625 -41.328125 C 26.65625 -38.117188 27.25 -35.128906 28.4375 -32.359375 C 29.632812 -29.585938 31.28125 -27.15625 33.375 -25.0625 C 35.46875 -22.96875 37.875 -21.335938 40.59375 -20.171875 C 43.3125 -19.003906 46.21875 -18.421875 49.3125 -18.421875 Z M 49.3125 -18.421875 "/></g></g></g><g fill="#ffffff" fill-opacity="1"><g transform="translate(198.562024, 124.468185)"><g><path d="M 73.59375 -77.015625 C 74.082031 -76.640625 74.378906 -76.097656 74.484375 -75.390625 C 74.597656 -74.679688 74.410156 -73.945312 73.921875 -73.1875 L 67.234375 -62.4375 C 66.691406 -61.613281 66.082031 -61.132812 65.40625 -61 C 64.726562 -60.863281 64.0625 -61.070312 63.40625 -61.625 C 61.5625 -63.195312 59.550781 -64.441406 57.375 -65.359375 C 55.207031 -66.285156 53.195312 -66.75 51.34375 -66.75 C 47.59375 -66.75 44.222656 -65.769531 41.234375 -63.8125 C 38.253906 -61.863281 35.894531 -59.257812 34.15625 -56 C 32.414062 -52.738281 31.546875 -49.175781 31.546875 -45.3125 L 31.546875 -2.4375 C 31.546875 -0.757812 30.703125 0.078125 29.015625 0.078125 L 13.359375 0.078125 C 11.679688 0.078125 10.84375 -0.757812 10.84375 -2.4375 L 10.84375 -80.125 C 10.84375 -80.9375 11.085938 -81.585938 11.578125 -82.078125 C 12.066406 -82.566406 12.691406 -82.8125 13.453125 -82.8125 L 22.5 -82.8125 C 23.144531 -82.8125 23.695312 -82.644531 24.15625 -82.3125 C 24.625 -81.988281 24.992188 -81.554688 25.265625 -81.015625 L 28.859375 -69.109375 C 30.648438 -72.210938 32.875 -74.929688 35.53125 -77.265625 C 38.195312 -79.597656 41.101562 -81.414062 44.25 -82.71875 C 47.40625 -84.03125 50.613281 -84.6875 53.875 -84.6875 C 57.132812 -84.6875 60.53125 -83.992188 64.0625 -82.609375 C 67.59375 -81.222656 70.769531 -79.359375 73.59375 -77.015625 Z M 73.59375 -77.015625 "/></g></g></g><g fill="#ffffff" fill-opacity="1"><g transform="translate(276.563208, 124.468185)"><g><path d="M 57.78125 -84.765625 C 64.195312 -84.765625 69.863281 -83.320312 74.78125 -80.4375 C 79.695312 -77.5625 83.550781 -73.460938 86.34375 -68.140625 C 89.144531 -62.816406 90.546875 -56.484375 90.546875 -49.140625 L 90.546875 -2.53125 C 90.546875 -0.84375 89.707031 0 88.03125 0 L 72.453125 0 C 70.773438 0 69.9375 -0.84375 69.9375 -2.53125 L 69.9375 -47.921875 C 69.9375 -51.453125 69.171875 -54.5625 67.640625 -57.25 C 66.117188 -59.945312 63.972656 -62.066406 61.203125 -63.609375 C 58.429688 -65.160156 55.171875 -65.9375 51.421875 -65.9375 C 47.785156 -65.9375 44.457031 -65.09375 41.4375 -63.40625 C 38.425781 -61.726562 36.023438 -59.503906 34.234375 -56.734375 C 32.441406 -53.960938 31.546875 -50.914062 31.546875 -47.59375 L 31.546875 -2.4375 C 31.546875 -0.757812 30.703125 0.078125 29.015625 0.078125 L 13.359375 0.078125 C 11.679688 0.078125 10.84375 -0.757812 10.84375 -2.4375 L 10.84375 -80.125 C 10.84375 -80.9375 11.085938 -81.585938 11.578125 -82.078125 C 12.066406 -82.566406 12.691406 -82.8125 13.453125 -82.8125 L 22.5 -82.8125 C 23.144531 -82.8125 23.695312 -82.644531 24.15625 -82.3125 C 24.625 -81.988281 24.992188 -81.554688 25.265625 -81.015625 L 29.09375 -68.21875 C 30.882812 -71.425781 33.257812 -74.28125 36.21875 -76.78125 C 39.1875 -79.28125 42.53125 -81.234375 46.25 -82.640625 C 49.976562 -84.054688 53.820312 -84.765625 57.78125 -84.765625 Z M 57.78125 -84.765625 "/></g></g></g><g fill="#ffffff" fill-opacity="1"><g transform="translate(377.151327, 124.468185)"><g/></g></g><g fill="#ffffff" fill-opacity="1"><g transform="translate(429.641148, 124.468185)"><g/></g></g><g fill="#ffffff" fill-opacity="1"><g transform="translate(482.141433, 124.468185)"><g><path d="M 73.59375 -77.015625 C 74.082031 -76.640625 74.378906 -76.097656 74.484375 -75.390625 C 74.597656 -74.679688 74.410156 -73.945312 73.921875 -73.1875 L 67.234375 -62.4375 C 66.691406 -61.613281 66.082031 -61.132812 65.40625 -61 C 64.726562 -60.863281 64.0625 -61.070312 63.40625 -61.625 C 61.5625 -63.195312 59.550781 -64.441406 57.375 -65.359375 C 55.207031 -66.285156 53.195312 -66.75 51.34375 -66.75 C 47.59375 -66.75 44.222656 -65.769531 41.234375 -63.8125 C 38.253906 -61.863281 35.894531 -59.257812 34.15625 -56 C 32.414062 -52.738281 31.546875 -49.175781 31.546875 -45.3125 L 31.546875 -2.4375 C 31.546875 -0.757812 30.703125 0.078125 29.015625 0.078125 L 13.359375 0.078125 C 11.679688 0.078125 10.84375 -0.757812 10.84375 -2.4375 L 10.84375 -80.125 C 10.84375 -80.9375 11.085938 -81.585938 11.578125 -82.078125 C 12.066406 -82.566406 12.691406 -82.8125 13.453125 -82.8125 L 22.5 -82.8125 C 23.144531 -82.8125 23.695312 -82.644531 24.15625 -82.3125 C 24.625 -81.988281 24.992188 -81.554688 25.265625 -81.015625 L 28.859375 -69.109375 C 30.648438 -72.210938 32.875 -74.929688 35.53125 -77.265625 C 38.195312 -79.597656 41.101562 -81.414062 44.25 -82.71875 C 47.40625 -84.03125 50.613281 -84.6875 53.875 -84.6875 C 57.132812 -84.6875 60.53125 -83.992188 64.0625 -82.609375 C 67.59375 -81.222656 70.769531 -79.359375 73.59375 -77.015625 Z M 73.59375 -77.015625 "/></g></g></g><g fill="#ffffff" fill-opacity="1"><g transform="translate(560.142616, 124.468185)"><g><path d="M 83.703125 -82.734375 C 84.460938 -82.734375 85.0625 -82.429688 85.5 -81.828125 C 85.9375 -81.234375 85.9375 -80.445312 85.5 -79.46875 L 52.890625 -2.28125 L 39.609375 29.828125 C 39.015625 31.296875 38.007812 32.03125 36.59375 32.03125 L 23.140625 32.03125 C 21.835938 32.03125 20.882812 31.71875 20.28125 31.09375 C 19.6875 30.46875 19.71875 29.367188 20.375 27.796875 L 32.6875 -2.859375 L 0.40625 -79.46875 C -0.03125 -80.445312 -0.03125 -81.234375 0.40625 -81.828125 C 0.84375 -82.429688 1.414062 -82.734375 2.125 -82.734375 L 18.984375 -82.734375 C 19.742188 -82.734375 20.453125 -82.515625 21.109375 -82.078125 C 21.765625 -81.640625 22.195312 -81.066406 22.40625 -80.359375 L 42.875 -27.140625 L 63.40625 -80.359375 C 63.675781 -81.066406 64.125 -81.640625 64.75 -82.078125 C 65.375 -82.515625 66.066406 -82.734375 66.828125 -82.734375 Z M 83.703125 -82.734375 "/></g></g></g></g></g></g><g clip-path="url(#03f8f4ca56)"><path stroke-linecap="round" transform="matrix(0.813768, 0, 0, 0.813768, 0.52501, 162.61391)" fill="none" stroke-linejoin="miter" d="M 14.000252 14.001411 L 483.661442 14.001411 " stroke="#ffffff" stroke-width="28" stroke-opacity="1" stroke-miterlimit="4"/></g><g clip-path="url(#aa77711a6d)"><path stroke-linecap="round" transform="matrix(0.00322801, -0.813762, 0.813762, 0.00322801, 0.830609, 157.745165)" fill="none" stroke-linejoin="miter" d="M 8.500189 8.498053 L 183.512084 8.499855 " stroke="#ffffff" stroke-width="17" stroke-opacity="1" stroke-miterlimit="4"/></g><path stroke-linecap="round" transform="matrix(0, -0.813768, 0.813768, 0, 18.899415, 157.773231)" fill="none" stroke-linejoin="miter" d="M 8.500901 8.499954 L 183.511411 8.499954 " stroke="#ffffff" stroke-width="17" stroke-opacity="1" stroke-miterlimit="4"/><g clip-path="url(#d0b05624ec)"><path fill="#ffffff" d="M 506.347656 142.484375 C 509.890625 148.164062 507.3125 152.808594 500.621094 152.808594 L 421.449219 152.808594 C 414.757812 152.808594 412.179688 148.164062 415.71875 142.484375 L 454.597656 80.136719 C 458.136719 74.457031 463.933594 74.457031 467.472656 80.136719 Z M 506.347656 142.484375 " fill-opacity="1" fill-rule="nonzero"/></g><g clip-path="url(#596e88ef3d)"><g clip-path="url(#a474a75cde)"><g clip-path="url(#9eb8de3423)"><g clip-path="url(#08c1af9551)"><path fill="#000000" d="M 452.699219 140.269531 C 450.585938 141.296875 449.050781 140.230469 449.292969 137.902344 L 452.164062 110.367188 C 452.40625 108.039062 454.125 107.3125 455.984375 108.75 L 476.398438 124.546875 C 478.257812 125.984375 478.050781 128 475.933594 129.027344 Z M 452.699219 140.269531 " fill-opacity="1" fill-rule="nonzero"/></g></g></g></g><path stroke-linecap="round" transform="matrix(0.813768, 0, 0, 0.813768, 65.161668, 168.310276)" fill="none" stroke-linejoin="miter" d="M 7.001635 7.001425 L 402.806944 7.001425 " stroke="#000000" stroke-width="14" stroke-opacity="1" stroke-miterlimit="4"/><g clip-path="url(#2ab6ddf087)"><g clip-path="url(#b920e013ce)"><g transform="matrix(1, 0, 0, 1, 43, 167)"><g clip-path="url(#e60d5606a7)"><g clip-path="url(#2aa7bb2305)"><g clip-path="url(#64972c6269)"><path fill="#000000" d="M 0.316406 0.570312 L 13.191406 0.570312 L 13.191406 13.445312 L 0.316406 13.445312 Z M 0.316406 0.570312 " fill-opacity="1" fill-rule="nonzero"/></g></g></g></g></g></g><g clip-path="url(#45a23747df)"><g clip-path="url(#9d89979be5)"><g transform="matrix(1, 0, 0, 1, 25, 167)"><g clip-path="url(#1ac61308eb)"><g clip-path="url(#eef32e81a1)"><g clip-path="url(#ed8d29021c)"><path fill="#000000" d="M 0.820312 0.570312 L 13.695312 0.570312 L 13.695312 13.445312 L 0.820312 13.445312 Z M 0.820312 0.570312 " fill-opacity="1" fill-rule="nonzero"/></g></g></g></g></g></g><g clip-path="url(#52d06b08ab)"><g clip-path="url(#236bb33171)"><g transform="matrix(1, 0, 0, 1, 8, 167)"><g clip-path="url(#7d700ae823)"><g clip-path="url(#e81b83704b)"><g clip-path="url(#f4631e8071)"><path fill="#000000" d="M 0.0625 0.570312 L 12.9375 0.570312 L 12.9375 13.445312 L 0.0625 13.445312 Z M 0.0625 0.570312 " fill-opacity="1" fill-rule="nonzero"/></g></g></g></g></g></g></g></g></svg>