<svg xmlns="http://www.w3.org/2000/svg" xmlns:xlink="http://www.w3.org/1999/xlink" width="1000" zoomAndPan="magnify" viewBox="0 0 750 374.999991" height="500" preserveAspectRatio="xMidYMid meet" version="1.0"><defs><g/><clipPath id="ea14ce5e4e"><path d="M 562 42 L 650 42 L 650 157.800781 L 562 157.800781 Z M 562 42 " clip-rule="nonzero"/></clipPath><clipPath id="19b9b17575"><rect x="0" width="651" y="0" height="158"/></clipPath><clipPath id="5d00278b9d"><path d="M 488 190 L 517 190 L 517 224 L 488 224 Z M 488 190 " clip-rule="nonzero"/></clipPath><clipPath id="5a0c825088"><path d="M 491.289062 190.070312 L 518.886719 192.945312 L 515.3125 227.261719 L 487.710938 224.382812 Z M 491.289062 190.070312 " clip-rule="nonzero"/></clipPath><clipPath id="f072a5a434"><path d="M 491.289062 190.070312 L 518.886719 192.945312 L 515.3125 227.261719 L 487.710938 224.382812 Z M 491.289062 190.070312 " clip-rule="nonzero"/></clipPath><clipPath id="f2aaaa8783"><path d="M 80.46875 250.761719 L 93.398438 250.761719 L 93.398438 263.691406 L 80.46875 263.691406 Z M 80.46875 250.761719 " clip-rule="nonzero"/></clipPath><clipPath id="49000dc284"><path d="M 86.933594 250.761719 C 83.363281 250.761719 80.46875 253.65625 80.46875 257.226562 C 80.46875 260.796875 83.363281 263.691406 86.933594 263.691406 C 90.503906 263.691406 93.398438 260.796875 93.398438 257.226562 C 93.398438 253.65625 90.503906 250.761719 86.933594 250.761719 Z M 86.933594 250.761719 " clip-rule="nonzero"/></clipPath><clipPath id="ed57613c16"><path d="M 0.46875 0.761719 L 13.398438 0.761719 L 13.398438 13.691406 L 0.46875 13.691406 Z M 0.46875 0.761719 " clip-rule="nonzero"/></clipPath><clipPath id="5156578adf"><path d="M 6.933594 0.761719 C 3.363281 0.761719 0.46875 3.65625 0.46875 7.226562 C 0.46875 10.796875 3.363281 13.691406 6.933594 13.691406 C 10.503906 13.691406 13.398438 10.796875 13.398438 7.226562 C 13.398438 3.65625 10.503906 0.761719 6.933594 0.761719 Z M 6.933594 0.761719 " clip-rule="nonzero"/></clipPath><clipPath id="4e0684a137"><rect x="0" width="14" y="0" height="14"/></clipPath><clipPath id="6616ec6e19"><path d="M 62.902344 250.761719 L 75.832031 250.761719 L 75.832031 263.691406 L 62.902344 263.691406 Z M 62.902344 250.761719 " clip-rule="nonzero"/></clipPath><clipPath id="438b279c10"><path d="M 69.367188 250.761719 C 65.796875 250.761719 62.902344 253.65625 62.902344 257.226562 C 62.902344 260.796875 65.796875 263.691406 69.367188 263.691406 C 72.9375 263.691406 75.832031 260.796875 75.832031 257.226562 C 75.832031 253.65625 72.9375 250.761719 69.367188 250.761719 Z M 69.367188 250.761719 " clip-rule="nonzero"/></clipPath><clipPath id="5423c2ef45"><path d="M 0.902344 0.761719 L 13.832031 0.761719 L 13.832031 13.691406 L 0.902344 13.691406 Z M 0.902344 0.761719 " clip-rule="nonzero"/></clipPath><clipPath id="ffe02ebc7d"><path d="M 7.367188 0.761719 C 3.796875 0.761719 0.902344 3.65625 0.902344 7.226562 C 0.902344 10.796875 3.796875 13.691406 7.367188 13.691406 C 10.9375 13.691406 13.832031 10.796875 13.832031 7.226562 C 13.832031 3.65625 10.9375 0.761719 7.367188 0.761719 Z M 7.367188 0.761719 " clip-rule="nonzero"/></clipPath><clipPath id="88a88a9876"><rect x="0" width="14" y="0" height="14"/></clipPath><clipPath id="900c12126b"><path d="M 45.066406 250.761719 L 57.996094 250.761719 L 57.996094 263.691406 L 45.066406 263.691406 Z M 45.066406 250.761719 " clip-rule="nonzero"/></clipPath><clipPath id="1bffa9c97a"><path d="M 51.53125 250.761719 C 47.960938 250.761719 45.066406 253.65625 45.066406 257.226562 C 45.066406 260.796875 47.960938 263.691406 51.53125 263.691406 C 55.101562 263.691406 57.996094 260.796875 57.996094 257.226562 C 57.996094 253.65625 55.101562 250.761719 51.53125 250.761719 Z M 51.53125 250.761719 " clip-rule="nonzero"/></clipPath><clipPath id="91b7f0ee54"><path d="M 0.0664062 0.761719 L 12.996094 0.761719 L 12.996094 13.691406 L 0.0664062 13.691406 Z M 0.0664062 0.761719 " clip-rule="nonzero"/></clipPath><clipPath id="05c836d55b"><path d="M 6.53125 0.761719 C 2.960938 0.761719 0.0664062 3.65625 0.0664062 7.226562 C 0.0664062 10.796875 2.960938 13.691406 6.53125 13.691406 C 10.101562 13.691406 12.996094 10.796875 12.996094 7.226562 C 12.996094 3.65625 10.101562 0.761719 6.53125 0.761719 Z M 6.53125 0.761719 " clip-rule="nonzero"/></clipPath><clipPath id="4fe94912dc"><rect x="0" width="13" y="0" height="14"/></clipPath></defs><rect x="-75" width="900" fill="#ffffff" y="-37.499999" height="449.999989" fill-opacity="1"/><rect x="-75" width="900" fill="#ffffff" y="-37.499999" height="449.999989" fill-opacity="1"/><g transform="matrix(1, 0, 0, 1, 69, 111)"><g clip-path="url(#19b9b17575)"><g fill="#000000" fill-opacity="1"><g transform="translate(0.365505, 125.085028)"><g><path d="M 90.203125 -45.5 C 90.203125 -43.207031 89.722656 -41 88.765625 -38.875 C 87.804688 -36.75 86.519531 -35.003906 84.90625 -33.640625 C 83.300781 -32.273438 81.488281 -31.59375 79.46875 -31.59375 L 28.3125 -31.59375 C 29.351562 -28.914062 30.953125 -26.523438 33.109375 -24.421875 C 35.265625 -22.328125 37.84375 -20.675781 40.84375 -19.46875 C 43.84375 -18.269531 47.085938 -17.671875 50.578125 -17.671875 C 52.160156 -17.671875 53.929688 -17.941406 55.890625 -18.484375 C 57.859375 -19.035156 59.851562 -19.789062 61.875 -20.75 C 63.894531 -21.707031 65.722656 -22.785156 67.359375 -23.984375 C 67.960938 -24.472656 68.660156 -24.648438 69.453125 -24.515625 C 70.242188 -24.378906 70.882812 -24.007812 71.375 -23.40625 L 79.71875 -12.4375 C 80.15625 -11.78125 80.347656 -11.070312 80.296875 -10.3125 C 80.242188 -9.550781 79.914062 -8.894531 79.3125 -8.34375 C 76.96875 -6.382812 74.101562 -4.613281 70.71875 -3.03125 C 67.332031 -1.445312 63.820312 -0.207031 60.1875 0.6875 C 56.5625 1.59375 53.171875 2.046875 50.015625 2.046875 C 43.785156 2.046875 38 0.925781 32.65625 -1.3125 C 27.3125 -3.550781 22.632812 -6.644531 18.625 -10.59375 C 14.613281 -14.550781 11.472656 -19.160156 9.203125 -24.421875 C 6.941406 -29.691406 5.8125 -35.359375 5.8125 -41.421875 C 5.8125 -47.523438 6.914062 -53.207031 9.125 -58.46875 C 11.332031 -63.738281 14.398438 -68.363281 18.328125 -72.34375 C 22.265625 -76.332031 26.835938 -79.445312 32.046875 -81.6875 C 37.253906 -83.925781 42.882812 -85.046875 48.9375 -85.046875 C 54.726562 -85.046875 60.117188 -84.035156 65.109375 -82.015625 C 70.097656 -79.992188 74.472656 -77.179688 78.234375 -73.578125 C 82.003906 -69.972656 84.941406 -65.785156 87.046875 -61.015625 C 89.148438 -56.242188 90.203125 -51.070312 90.203125 -45.5 Z M 48.453125 -65.5625 C 45.234375 -65.5625 42.242188 -64.921875 39.484375 -63.640625 C 36.734375 -62.359375 34.375 -60.582031 32.40625 -58.3125 C 30.445312 -56.050781 29.003906 -53.445312 28.078125 -50.5 L 69.484375 -50.5 C 68.671875 -53.445312 67.238281 -56.050781 65.1875 -58.3125 C 63.144531 -60.582031 60.691406 -62.359375 57.828125 -63.640625 C 54.960938 -64.921875 51.835938 -65.5625 48.453125 -65.5625 Z M 48.453125 -65.5625 "/></g></g></g><g fill="#000000" fill-opacity="1"><g transform="translate(96.289129, 125.085028)"><g><path d="M 89.703125 -83.15625 C 90.460938 -83.15625 91.085938 -82.910156 91.578125 -82.421875 C 92.078125 -81.929688 92.328125 -81.273438 92.328125 -80.453125 L 92.328125 -2.53125 C 92.328125 -1.769531 92.078125 -1.144531 91.578125 -0.65625 C 91.085938 -0.164062 90.460938 0.078125 89.703125 0.078125 L 80.625 0.078125 C 79.3125 0.078125 78.382812 -0.519531 77.84375 -1.71875 L 74.484375 -12.9375 C 71.148438 -8.289062 67.015625 -4.660156 62.078125 -2.046875 C 57.140625 0.566406 51.671875 1.875 45.671875 1.875 C 39.992188 1.875 34.738281 0.785156 29.90625 -1.390625 C 25.082031 -3.578125 20.867188 -6.617188 17.265625 -10.515625 C 13.671875 -14.421875 10.863281 -19.003906 8.84375 -24.265625 C 6.820312 -29.535156 5.8125 -35.253906 5.8125 -41.421875 C 5.8125 -47.742188 6.804688 -53.566406 8.796875 -58.890625 C 10.785156 -64.210938 13.582031 -68.835938 17.1875 -72.765625 C 20.789062 -76.691406 25.003906 -79.734375 29.828125 -81.890625 C 34.660156 -84.046875 39.914062 -85.125 45.59375 -85.125 C 51.59375 -85.125 57.070312 -83.8125 62.03125 -81.1875 C 67 -78.570312 71.148438 -74.890625 74.484375 -70.140625 L 77.84375 -81.359375 C 78.382812 -82.554688 79.3125 -83.15625 80.625 -83.15625 Z M 49.515625 -18.5 C 52.679688 -18.5 55.65625 -19.082031 58.4375 -20.25 C 61.21875 -21.425781 63.671875 -23.0625 65.796875 -25.15625 C 67.929688 -27.257812 69.597656 -29.703125 70.796875 -32.484375 C 71.992188 -35.273438 72.59375 -38.28125 72.59375 -41.5 C 72.59375 -44.769531 71.976562 -47.8125 70.75 -50.625 C 69.53125 -53.4375 67.851562 -55.890625 65.71875 -57.984375 C 63.59375 -60.085938 61.140625 -61.722656 58.359375 -62.890625 C 55.578125 -64.066406 52.601562 -64.65625 49.4375 -64.65625 C 46.320312 -64.65625 43.398438 -64.066406 40.671875 -62.890625 C 37.953125 -61.722656 35.550781 -60.085938 33.46875 -57.984375 C 31.394531 -55.890625 29.757812 -53.4375 28.5625 -50.625 C 27.363281 -47.8125 26.765625 -44.769531 26.765625 -41.5 C 26.765625 -38.28125 27.363281 -35.273438 28.5625 -32.484375 C 29.757812 -29.703125 31.410156 -27.257812 33.515625 -25.15625 C 35.617188 -23.0625 38.035156 -21.425781 40.765625 -20.25 C 43.492188 -19.082031 46.410156 -18.5 49.515625 -18.5 Z M 49.515625 -18.5 "/></g></g></g><g fill="#000000" fill-opacity="1"><g transform="translate(199.497055, 125.085028)"><g><path d="M 73.90625 -77.34375 C 74.394531 -76.96875 74.691406 -76.421875 74.796875 -75.703125 C 74.910156 -74.992188 74.722656 -74.257812 74.234375 -73.5 L 67.53125 -62.703125 C 66.976562 -61.878906 66.359375 -61.398438 65.671875 -61.265625 C 64.992188 -61.128906 64.328125 -61.332031 63.671875 -61.875 C 61.816406 -63.457031 59.796875 -64.710938 57.609375 -65.640625 C 55.429688 -66.566406 53.414062 -67.03125 51.5625 -67.03125 C 47.800781 -67.03125 44.414062 -66.046875 41.40625 -64.078125 C 38.40625 -62.117188 36.03125 -59.5 34.28125 -56.21875 C 32.539062 -52.945312 31.671875 -49.375 31.671875 -45.5 L 31.671875 -2.453125 C 31.671875 -0.765625 30.828125 0.078125 29.140625 0.078125 L 13.421875 0.078125 C 11.734375 0.078125 10.890625 -0.765625 10.890625 -2.453125 L 10.890625 -80.453125 C 10.890625 -81.273438 11.132812 -81.929688 11.625 -82.421875 C 12.113281 -82.910156 12.738281 -83.15625 13.5 -83.15625 L 22.59375 -83.15625 C 23.25 -83.15625 23.804688 -82.988281 24.265625 -82.65625 C 24.734375 -82.332031 25.101562 -81.898438 25.375 -81.359375 L 28.96875 -69.40625 C 30.769531 -72.519531 33.007812 -75.25 35.6875 -77.59375 C 38.363281 -79.9375 41.28125 -81.765625 44.4375 -83.078125 C 47.601562 -84.390625 50.828125 -85.046875 54.109375 -85.046875 C 57.378906 -85.046875 60.785156 -84.347656 64.328125 -82.953125 C 67.878906 -81.554688 71.070312 -79.6875 73.90625 -77.34375 Z M 73.90625 -77.34375 "/></g></g></g><g fill="#000000" fill-opacity="1"><g transform="translate(277.823769, 125.085028)"><g><path d="M 58.03125 -85.125 C 64.46875 -85.125 70.15625 -83.675781 75.09375 -80.78125 C 80.03125 -77.894531 83.90625 -73.773438 86.71875 -68.421875 C 89.53125 -63.078125 90.9375 -56.722656 90.9375 -49.359375 L 90.9375 -2.53125 C 90.9375 -0.84375 90.085938 0 88.390625 0 L 72.765625 0 C 71.066406 0 70.21875 -0.84375 70.21875 -2.53125 L 70.21875 -48.125 C 70.21875 -51.675781 69.453125 -54.800781 67.921875 -57.5 C 66.398438 -60.195312 64.25 -62.320312 61.46875 -63.875 C 58.6875 -65.4375 55.410156 -66.21875 51.640625 -66.21875 C 47.984375 -66.21875 44.640625 -65.367188 41.609375 -63.671875 C 38.585938 -61.984375 36.175781 -59.75 34.375 -56.96875 C 32.570312 -54.1875 31.671875 -51.128906 31.671875 -47.796875 L 31.671875 -2.453125 C 31.671875 -0.765625 30.828125 0.078125 29.140625 0.078125 L 13.421875 0.078125 C 11.734375 0.078125 10.890625 -0.765625 10.890625 -2.453125 L 10.890625 -80.453125 C 10.890625 -81.273438 11.132812 -81.929688 11.625 -82.421875 C 12.113281 -82.910156 12.738281 -83.15625 13.5 -83.15625 L 22.59375 -83.15625 C 23.25 -83.15625 23.804688 -82.988281 24.265625 -82.65625 C 24.734375 -82.332031 25.101562 -81.898438 25.375 -81.359375 L 29.21875 -68.5 C 31.019531 -71.726562 33.40625 -74.59375 36.375 -77.09375 C 39.351562 -79.601562 42.710938 -81.566406 46.453125 -82.984375 C 50.191406 -84.410156 54.050781 -85.125 58.03125 -85.125 Z M 58.03125 -85.125 "/></g></g></g><g fill="#000000" fill-opacity="1"><g transform="translate(378.827441, 125.085028)"><g/></g></g><g fill="#000000" fill-opacity="1"><g transform="translate(431.536326, 125.085028)"><g/></g></g><g fill="#000000" fill-opacity="1"><g transform="translate(484.254385, 125.085028)"><g><path d="M 73.90625 -77.34375 C 74.394531 -76.96875 74.691406 -76.421875 74.796875 -75.703125 C 74.910156 -74.992188 74.722656 -74.257812 74.234375 -73.5 L 67.53125 -62.703125 C 66.976562 -61.878906 66.359375 -61.398438 65.671875 -61.265625 C 64.992188 -61.128906 64.328125 -61.332031 63.671875 -61.875 C 61.816406 -63.457031 59.796875 -64.710938 57.609375 -65.640625 C 55.429688 -66.566406 53.414062 -67.03125 51.5625 -67.03125 C 47.800781 -67.03125 44.414062 -66.046875 41.40625 -64.078125 C 38.40625 -62.117188 36.03125 -59.5 34.28125 -56.21875 C 32.539062 -52.945312 31.671875 -49.375 31.671875 -45.5 L 31.671875 -2.453125 C 31.671875 -0.765625 30.828125 0.078125 29.140625 0.078125 L 13.421875 0.078125 C 11.734375 0.078125 10.890625 -0.765625 10.890625 -2.453125 L 10.890625 -80.453125 C 10.890625 -81.273438 11.132812 -81.929688 11.625 -82.421875 C 12.113281 -82.910156 12.738281 -83.15625 13.5 -83.15625 L 22.59375 -83.15625 C 23.25 -83.15625 23.804688 -82.988281 24.265625 -82.65625 C 24.734375 -82.332031 25.101562 -81.898438 25.375 -81.359375 L 28.96875 -69.40625 C 30.769531 -72.519531 33.007812 -75.25 35.6875 -77.59375 C 38.363281 -79.9375 41.28125 -81.765625 44.4375 -83.078125 C 47.601562 -84.390625 50.828125 -85.046875 54.109375 -85.046875 C 57.378906 -85.046875 60.785156 -84.347656 64.328125 -82.953125 C 67.878906 -81.554688 71.070312 -79.6875 73.90625 -77.34375 Z M 73.90625 -77.34375 "/></g></g></g><g clip-path="url(#ea14ce5e4e)"><g fill="#000000" fill-opacity="1"><g transform="translate(562.581099, 125.085028)"><g><path d="M 84.0625 -83.078125 C 84.820312 -83.078125 85.421875 -82.773438 85.859375 -82.171875 C 86.296875 -81.578125 86.296875 -80.785156 85.859375 -79.796875 L 53.125 -2.296875 L 39.78125 29.953125 C 39.175781 31.429688 38.164062 32.171875 36.75 32.171875 L 23.25 32.171875 C 21.9375 32.171875 20.976562 31.851562 20.375 31.21875 C 19.78125 30.59375 19.8125 29.488281 20.46875 27.90625 L 32.828125 -2.859375 L 0.40625 -79.796875 C -0.03125 -80.785156 -0.03125 -81.578125 0.40625 -82.171875 C 0.84375 -82.773438 1.414062 -83.078125 2.125 -83.078125 L 19.078125 -83.078125 C 19.835938 -83.078125 20.546875 -82.859375 21.203125 -82.421875 C 21.859375 -81.984375 22.296875 -81.410156 22.515625 -80.703125 L 43.046875 -27.25 L 63.671875 -80.703125 C 63.953125 -81.410156 64.40625 -81.984375 65.03125 -82.421875 C 65.65625 -82.859375 66.347656 -83.078125 67.109375 -83.078125 Z M 84.0625 -83.078125 "/></g></g></g></g></g></g><path stroke-linecap="round" transform="matrix(0.75, 0, 0, 0.75, 37.500007, 245.600257)" fill="none" stroke-linejoin="miter" d="M 15.499992 15.501742 L 526.729193 15.501742 " stroke="#000000" stroke-width="31" stroke-opacity="1" stroke-miterlimit="4"/><path stroke-linecap="round" transform="matrix(0.00297506, -0.749994, 0.749994, 0.00297506, 37.631172, 240.898621)" fill="none" stroke-linejoin="miter" d="M 9.50155 9.50103 L 199.706187 9.501746 " stroke="#000000" stroke-width="19" stroke-opacity="1" stroke-miterlimit="4"/><path stroke-linecap="round" transform="matrix(0, -0.75, 0.75, 0, 55.775396, 240.92751)" fill="none" stroke-linejoin="miter" d="M 9.502305 9.502598 L 199.705443 9.502598 " stroke="#000000" stroke-width="19" stroke-opacity="1" stroke-miterlimit="4"/><path fill="#000000" d="M 545.539062 225.585938 C 549.097656 231.277344 546.507812 235.9375 539.78125 235.9375 L 460.199219 235.9375 C 453.46875 235.9375 450.878906 231.277344 454.4375 225.585938 L 493.519531 163.09375 C 497.078125 157.402344 502.902344 157.402344 506.460938 163.09375 Z M 545.539062 225.585938 " fill-opacity="1" fill-rule="nonzero"/><g clip-path="url(#5d00278b9d)"><g clip-path="url(#5a0c825088)"><g clip-path="url(#f072a5a434)"><path fill="#ffffff" d="M 491.53125 223.167969 C 489.429688 224.191406 487.910156 223.128906 488.152344 220.804688 L 491.019531 193.300781 C 491.261719 190.976562 492.96875 190.25 494.8125 191.683594 L 515.0625 207.449219 C 516.90625 208.882812 516.699219 210.898438 514.597656 211.921875 Z M 491.53125 223.167969 " fill-opacity="1" fill-rule="nonzero"/></g></g></g><path stroke-linecap="round" transform="matrix(0.75, 0, 0, 0.75, 102.406409, 251.600256)" fill="none" stroke-linejoin="miter" d="M 7.499789 7.501742 L 439.005026 7.501742 " stroke="#ffffff" stroke-width="15" stroke-opacity="1" stroke-miterlimit="4"/><g clip-path="url(#f2aaaa8783)"><g clip-path="url(#49000dc284)"><g transform="matrix(1, 0, 0, 1, 80, 250)"><g clip-path="url(#4e0684a137)"><g clip-path="url(#ed57613c16)"><g clip-path="url(#5156578adf)"><path fill="#ffffff" d="M 0.46875 0.761719 L 13.398438 0.761719 L 13.398438 13.691406 L 0.46875 13.691406 Z M 0.46875 0.761719 " fill-opacity="1" fill-rule="nonzero"/></g></g></g></g></g></g><g clip-path="url(#6616ec6e19)"><g clip-path="url(#438b279c10)"><g transform="matrix(1, 0, 0, 1, 62, 250)"><g clip-path="url(#88a88a9876)"><g clip-path="url(#5423c2ef45)"><g clip-path="url(#ffe02ebc7d)"><path fill="#ffffff" d="M 0.902344 0.761719 L 13.832031 0.761719 L 13.832031 13.691406 L 0.902344 13.691406 Z M 0.902344 0.761719 " fill-opacity="1" fill-rule="nonzero"/></g></g></g></g></g></g><g clip-path="url(#900c12126b)"><g clip-path="url(#1bffa9c97a)"><g transform="matrix(1, 0, 0, 1, 45, 250)"><g clip-path="url(#4fe94912dc)"><g clip-path="url(#91b7f0ee54)"><g clip-path="url(#05c836d55b)"><path fill="#ffffff" d="M 0.0664062 0.761719 L 12.996094 0.761719 L 12.996094 13.691406 L 0.0664062 13.691406 Z M 0.0664062 0.761719 " fill-opacity="1" fill-rule="nonzero"/></g></g></g></g></g></g></svg>