<svg xmlns="http://www.w3.org/2000/svg" xmlns:xlink="http://www.w3.org/1999/xlink" width="40" zoomAndPan="magnify" viewBox="0 0 30 30.000001" height="40" preserveAspectRatio="xMidYMid meet" version="1.0"><defs><clipPath id="ca3fb5e0f3"><path d="M 4.0625 5.429688 L 26.5625 5.429688 L 26.5625 23.574219 L 4.0625 23.574219 Z M 4.0625 5.429688 " clip-rule="nonzero"/></clipPath><clipPath id="e0b0aae774"><path d="M 12.183594 13.035156 L 18.714844 13.035156 L 18.714844 21 L 12.183594 21 Z M 12.183594 13.035156 " clip-rule="nonzero"/></clipPath></defs><g clip-path="url(#ca3fb5e0f3)"><path fill="#1e1e1e" d="M 25.789062 21.148438 C 26.605469 22.460938 26.011719 23.53125 24.46875 23.53125 L 6.207031 23.53125 C 4.660156 23.53125 4.066406 22.460938 4.882812 21.148438 L 13.851562 6.769531 C 14.667969 5.460938 16.003906 5.460938 16.820312 6.769531 Z M 25.789062 21.148438 " fill-opacity="1" fill-rule="nonzero"/></g><g clip-path="url(#e0b0aae774)"><path fill="#ffffff" d="M 13.03125 20.585938 C 12.574219 20.871094 12.203125 20.664062 12.203125 20.128906 L 12.203125 13.78125 C 12.203125 13.242188 12.574219 13.035156 13.03125 13.320312 L 18.027344 16.4375 C 18.484375 16.722656 18.484375 17.1875 18.027344 17.46875 Z M 13.03125 20.585938 " fill-opacity="1" fill-rule="nonzero"/></g></svg>